<svg xmlns="http://www.w3.org/2000/svg" viewBox="0 0 152.65 44.08"><defs><style>.cls-1{fill:#fff;}</style></defs><title>alatte_logo_2</title><g id="レイヤー_2" data-name="レイヤー 2"><g id="レイヤー_1-2" data-name="レイヤー 1"><path class="cls-1" d="M37.87,43.57h0a2.81,2.81,0,0,1-1.53-.42A2.63,2.63,0,0,1,35.22,42l-4.47-9.5a2.56,2.56,0,0,0-2.53-1.59L12.33,31a2.86,2.86,0,0,0-1.52.44A2.63,2.63,0,0,0,9.75,32.6L5.33,42.15a2.59,2.59,0,0,1-2.51,1.62,2.6,2.6,0,0,1-1.41-.37A2.84,2.84,0,0,1,0,41.23a2.42,2.42,0,0,1,.25-1.41l16-35.26a2.59,2.59,0,0,1,2.52-1.62h2.52a2.81,2.81,0,0,1,1.53.42,2.56,2.56,0,0,1,1.06,1.17L40.38,39.6A2.43,2.43,0,0,1,40.64,41a2.69,2.69,0,0,1-.45,1.26,3.17,3.17,0,0,1-1,.92A2.42,2.42,0,0,1,37.87,43.57ZM17.46,25.33l5.51,0a12.35,12.35,0,0,0,1.51-.1,1.89,1.89,0,0,0,1.28-.6c.29-.33.15-1.09,0-1.68a13.74,13.74,0,0,0-.58-1.75l-2.52-5.74a11.09,11.09,0,0,0-.82-1.66c-.45-.7-1.27-1.46-1.79-1.45S19,13,18.54,13.71c-.27.46-.7,1.21-1,1.75l-2.67,5.92A8.72,8.72,0,0,0,14.37,23a2.66,2.66,0,0,0,0,1.63,1.65,1.65,0,0,0,1.09.61A10.81,10.81,0,0,0,17.46,25.33Z"/><path class="cls-1" d="M83.88,38.28a4.42,4.42,0,0,1-4.45,4.51h-.3a4.13,4.13,0,0,1-1.3-.17,9.57,9.57,0,0,0-1.48-.28,3,3,0,0,0-1.59.18,12,12,0,0,1-4.77.91,14.67,14.67,0,0,1-5.79-1.08,15.23,15.23,0,0,1-4.68-3.16,16.62,16.62,0,0,1-3.15-4.65,14.82,14.82,0,0,1-1.21-5.77,14.9,14.9,0,0,1,4.25-10.41,14.57,14.57,0,0,1,10.42-4.42A13.39,13.39,0,0,1,75.26,15a13.93,13.93,0,0,1,7.45,7.36,13.69,13.69,0,0,1,1.12,5.42ZM70,38.24a9.32,9.32,0,0,0,5-1.38,9.29,9.29,0,0,0,4.55-8.23,9.49,9.49,0,0,0-9.67-9.5,9,9,0,0,0-3.71.78,8.83,8.83,0,0,0-1.64.87,8.29,8.29,0,0,0-1.41,1.16A11.58,11.58,0,0,0,61,25a9.75,9.75,0,0,0-.69,3.72,9.37,9.37,0,0,0,.73,3.71,11.84,11.84,0,0,0,2.08,3.06,12.08,12.08,0,0,0,3.08,2.05A9.94,9.94,0,0,0,70,38.24Zm5.68-9.5A5.76,5.76,0,1,1,69.89,23,5.75,5.75,0,0,1,75.64,28.74Z"/><path class="cls-1" d="M105.49,40.57a2.73,2.73,0,0,1-3,2.68c-.59-.12-1.16-.25-1.71-.41a15.76,15.76,0,0,1-1.6-.52,12.08,12.08,0,0,1-4.5-3,11.65,11.65,0,0,1-2.74-4.59A18,18,0,0,1,91,29l0-9.26-3.42,0A2.56,2.56,0,0,1,85.61,19a2.6,2.6,0,0,1-.78-1.88,2.64,2.64,0,0,1,.76-1.95,2.52,2.52,0,0,1,1.88-.78h.77a3.16,3.16,0,0,0,2.21-.51c.5-.51.43-1.41.43-2.15l0-3.19a2.61,2.61,0,0,1,.79-1.92,2.57,2.57,0,0,1,1.91-.81,2.51,2.51,0,0,1,1.89.79,2.6,2.6,0,0,1,.78,1.91l0,5.84,8.5,0a2.56,2.56,0,0,1,1.89.76,2.65,2.65,0,0,1,.78,1.94,2.6,2.6,0,0,1-.76,1.9,2.57,2.57,0,0,1-1.88.77l-8.5,0,0,9.26a13.44,13.44,0,0,0,.49,3.54,7.45,7.45,0,0,0,1.5,2.88,7.09,7.09,0,0,0,2.84,1.93,5.89,5.89,0,0,0,2.07.58,2.35,2.35,0,0,1,1.62.88A2.7,2.7,0,0,1,105.49,40.57Z"/><path class="cls-1" d="M124.06,40.43a2.62,2.62,0,0,1-.93,2,2.52,2.52,0,0,1-2.12.65,17.32,17.32,0,0,1-1.72-.4c-.55-.15-1.08-.33-1.59-.52a11.92,11.92,0,0,1-4.5-3,11.8,11.8,0,0,1-2.74-4.59,17.76,17.76,0,0,1-.92-5.66l-.05-9.26-3.42,0a2.56,2.56,0,0,1-1.89-.76A2.54,2.54,0,0,1,103.4,17a2.6,2.6,0,0,1,.76-2,2.5,2.5,0,0,1,1.88-.78h.77a3.49,3.49,0,0,0,2.29-.6c.51-.52.35-1.32.35-2.07l0-3.18a2.71,2.71,0,0,1,2.7-2.73,2.51,2.51,0,0,1,1.89.79,2.68,2.68,0,0,1,.78,1.91l0,5.84,8.5-.05a2.6,2.6,0,0,1,1.89.76,2.64,2.64,0,0,1,.77,1.94,2.52,2.52,0,0,1-.75,1.89,2.54,2.54,0,0,1-1.89.78l-8.49.05,0,9.26a13.44,13.44,0,0,0,.49,3.54,7.44,7.44,0,0,0,1.49,2.88,7.06,7.06,0,0,0,2.85,1.93,5.89,5.89,0,0,0,2.06.58,2.39,2.39,0,0,1,1.63.88A2.68,2.68,0,0,1,124.06,40.43Z"/><path class="cls-1" d="M144.53,36.78a8,8,0,0,0,1.94-1.47,2.29,2.29,0,0,1,1.3-.66,2.08,2.08,0,0,1,1.46.21,2.33,2.33,0,0,1,1.26,1.78,2.23,2.23,0,0,1-.64,2.06l-.27.27a4.29,4.29,0,0,1-.38.33,2.07,2.07,0,0,0-.32.28,1.74,1.74,0,0,1-.38.27,2,2,0,0,0-.38.24,1.47,1.47,0,0,1-.38.25l-.32.22-.38.22a13.3,13.3,0,0,1-6.65,1.77,12.53,12.53,0,0,1-5.26-1,12.33,12.33,0,0,1-4.3-2.9,13.67,13.67,0,0,1-3-4.32,13.91,13.91,0,0,1-1.11-5.25,12.38,12.38,0,0,1,1-5.26,12.91,12.91,0,0,1,2.8-4.29,13.08,13.08,0,0,1,9.4-4.06,13.17,13.17,0,0,1,9.45,4,7.5,7.5,0,0,1,.81.95c.26.34.51.69.77,1.05a11.67,11.67,0,0,1,.68,1.1c.2.38.39.77.58,1.16a4.8,4.8,0,0,1,.39,1.95,4.29,4.29,0,0,1-.37,1.9,4.71,4.71,0,0,1-1,1.63,5,5,0,0,1-1.56,1.15l-.38.16a5.16,5.16,0,0,1-2.17.5L134.31,31c-.68,0-1.56.14-1.88.75s.09,1.36.49,2a8,8,0,0,0,1.91,2.15,8.4,8.4,0,0,0,2.5,1.4,9.33,9.33,0,0,0,3,.47A9.22,9.22,0,0,0,144.53,36.78Zm-11.61-12.5a.76.76,0,0,0-.21.38,1.84,1.84,0,0,0-.17,1.77,2,2,0,0,0,1.81.66L145.72,27a2.37,2.37,0,0,0,1.94-.8c.32-.47,0-1.07-.33-1.65a2.71,2.71,0,0,0-.22-.38l-.49-.75c-.18-.22-.41-.47-.68-.76a7,7,0,0,0-1-.86,8.85,8.85,0,0,0-4.77-1.6h-.22a7.88,7.88,0,0,0-4.7,1.55,6.8,6.8,0,0,0-1.08.87,6.67,6.67,0,0,0-.7.81A7.15,7.15,0,0,0,132.92,24.28Z"/><rect class="cls-1" x="44.3" y="-0.01" width="6.18" height="44.09" rx="3.09" ry="3.09" transform="translate(-0.5 1.11) rotate(-1.33)"/></g></g></svg>